<svg width="85" height="97" viewBox="0 0 85 97" fill="none" xmlns="http://www.w3.org/2000/svg">
<rect width="85" height="97" rx="20" fill="#252873"/>
<path d="M36.0298 21.3636H46.4276V51.5341C46.4134 54.3608 45.7386 56.8324 44.4034 58.9489C43.0682 61.0511 41.2216 62.6847 38.8636 63.8494C36.5199 65.0142 33.8068 65.5966 30.7244 65.5966C27.9972 65.5966 25.5185 65.1207 23.2884 64.169C21.0724 63.2173 19.304 61.7401 17.983 59.7372C16.6761 57.7344 16.0298 55.1705 16.044 52.0455H26.5483C26.5909 53.1676 26.804 54.1264 27.1875 54.9219C27.5852 55.7031 28.1321 56.2926 28.8281 56.6903C29.5241 57.0881 30.3551 57.2869 31.321 57.2869C32.3295 57.2869 33.1818 57.0739 33.8778 56.6477C34.5739 56.2074 35.0994 55.5611 35.4545 54.7088C35.8239 53.8565 36.0156 52.7983 36.0298 51.5341V21.3636Z" fill="#FEFAFA"/>
<path d="M53.0298 36.3636H63.4276V66.5341C63.4134 69.3608 62.7386 71.8324 61.4034 73.9489C60.0682 76.0511 58.2216 77.6847 55.8636 78.8494C53.5199 80.0142 50.8068 80.5966 47.7244 80.5966C44.9972 80.5966 42.5185 80.1207 40.2884 79.169C38.0724 78.2173 36.304 76.7401 34.983 74.7372C33.6761 72.7344 33.0298 70.1705 33.044 67.0455H43.5483C43.5909 68.1676 43.804 69.1264 44.1875 69.9219C44.5852 70.7031 45.1321 71.2926 45.8281 71.6903C46.5241 72.0881 47.3551 72.2869 48.321 72.2869C49.3295 72.2869 50.1818 72.0739 50.8778 71.6477C51.5739 71.2074 52.0994 70.5611 52.4545 69.7088C52.8239 68.8565 53.0156 67.7983 53.0298 66.5341V36.3636Z" fill="#FEFAFA"/>
</svg>
