<svg width="143" height="57" viewBox="0 0 143 57" fill="none" xmlns="http://www.w3.org/2000/svg">
<path d="M12.7 51.8C9.54 51.8 6.78 50.68 4.42 48.44C2.06 46.16 0.88 43.42 0.88 40.22C0.88 36.9 2.12 34.04 4.6 31.64C7.16 29.16 10.06 27.92 13.3 27.92C15.78 27.92 17.78 28.68 19.3 30.2C20.74 31.68 21.46 33.7 21.46 36.26C21.46 38.14 20.62 39.86 18.94 41.42C17.3 42.94 15.54 43.7 13.66 43.7C12.1 43.7 10.74 43.34 9.58 42.62C8.22 41.78 7.54 40.6 7.54 39.08C7.54 38.36 7.74 37.66 8.14 36.98C8.58 36.14 9.12 35.72 9.76 35.72C9.92 35.72 10 35.78 10 35.9C10 35.94 9.82 36.12 9.46 36.44C9.1 36.8 8.86 37.1 8.74 37.34C8.5 37.86 8.38 38.42 8.38 39.02C8.38 40.26 8.84 41.28 9.76 42.08C10.68 42.88 11.74 43.28 12.94 43.28C14.94 43.28 16.6 42.44 17.92 40.76C19.16 39.24 19.78 37.44 19.78 35.36C19.78 33.24 19.2 31.58 18.04 30.38C16.88 29.1 15.26 28.46 13.18 28.46C10.06 28.46 7.52 29.58 5.56 31.82C3.72 33.9 2.8 36.54 2.8 39.74C2.8 44.5 4.94 47.88 9.22 49.88C10.66 50.52 12.06 50.84 13.42 50.84H14.08C14.88 50.72 15.62 50.54 16.3 50.3C17.02 50.06 17.66 49.8 18.22 49.52C20.18 48.48 22.04 46.86 23.8 44.66C25.56 42.46 27.24 39.7 28.84 36.38C30.24 33.42 32.34 27.96 35.14 20C36.42 16.44 38.18 13.12 40.42 10.04C43.02 6.52 45.78 4.08 48.7 2.72C43.5 2.72 39.36 3.26 36.28 4.34C31.84 5.86 28.98 8.6 27.7 12.56C27.54 13.08 27.46 13.64 27.46 14.24C27.46 15.2 27.76 16.02 28.36 16.7C28.96 17.38 29.76 17.72 30.76 17.72C32.72 17.72 34.08 16.46 34.84 13.94C35 13.5 35.08 13.16 35.08 12.92V12.44C35.04 12.32 35.02 12.2 35.02 12.08C35.06 12 35.12 11.96 35.2 11.96C35.36 11.96 35.44 12.22 35.44 12.74C35.44 14.26 35 15.54 34.12 16.58C33.16 17.7 31.96 18.26 30.52 18.26C29.2 18.26 28.16 17.82 27.4 16.94C26.64 16.14 26.26 15.08 26.26 13.76C26.26 13.52 26.26 13.3 26.26 13.1C26.3 12.86 26.34 12.66 26.38 12.5C27.18 8.58 30 5.72 34.84 3.92C38.44 2.64 42.66 2 47.5 2C49.42 2 50.44 2.06 50.56 2.18C50.4 2.22 50.14 2.34 49.78 2.54C49.46 2.7 49.04 3 48.52 3.44C44.28 6.8 41.16 11.84 39.16 18.56C36.6 27.04 33.9 33.66 31.06 38.42C26.62 45.82 21.32 50.2 15.16 51.56C14.76 51.6 14.36 51.64 13.96 51.68C13.56 51.76 13.14 51.8 12.7 51.8ZM47.4569 38.54C45.6969 38.54 44.3569 37.78 43.4369 36.26C42.5969 34.98 42.1769 33.42 42.1769 31.58C42.1769 28.42 43.1769 25.48 45.1769 22.76C47.3769 19.8 50.0169 18.32 53.0969 18.32C54.6569 18.32 55.8569 18.86 56.6969 19.94C57.4969 20.98 57.8969 22.3 57.8969 23.9C57.8969 24.62 57.8169 25.36 57.6569 26.12C57.5369 26.88 57.3369 27.68 57.0569 28.52C56.4569 30.28 55.7169 31.66 54.8369 32.66L54.9569 32.84C55.3569 33.12 55.8369 33.26 56.3969 33.26C57.5569 33.26 58.5369 32.88 59.3369 32.12C60.1369 31.36 61.0369 30 62.0369 28.04C62.0769 27.88 62.1569 27.8 62.2769 27.8C62.3569 27.8 62.4169 27.86 62.4569 27.98C62.4969 28.06 62.4769 28.18 62.3969 28.34C61.5569 30.1 60.6569 31.44 59.6969 32.36C58.7769 33.28 57.6969 33.74 56.4569 33.74C55.6569 33.74 55.0369 33.52 54.5969 33.08C54.1969 33.8 53.7569 34.48 53.2769 35.12C52.7969 35.72 52.2569 36.26 51.6569 36.74C50.2969 37.94 48.8969 38.54 47.4569 38.54ZM47.8769 38.06C49.9969 38.06 52.0769 36.44 54.1169 33.2C54.1169 33.08 54.1769 32.96 54.2969 32.84C53.5769 31.64 53.2169 30.5 53.2169 29.42C53.2169 29.38 53.2169 29.3 53.2169 29.18C53.2169 29.02 53.2369 28.82 53.2769 28.58C53.3169 28.14 53.3969 27.7 53.5169 27.26C53.6369 26.78 53.8369 26.34 54.1169 25.94C54.7169 24.98 55.4369 24.5 56.2769 24.5H56.8169C56.9769 24.54 57.0969 24.56 57.1769 24.56C57.2569 24.56 57.3169 24.56 57.3569 24.56C57.3569 20.96 56.2169 19.16 53.9369 19.16C52.0169 19.16 50.1969 20.32 48.4769 22.64C47.0769 24.48 46.0769 26.54 45.4769 28.82C45.1169 30.06 44.9369 31.36 44.9369 32.72C44.9369 36.28 45.9169 38.06 47.8769 38.06ZM65.6514 38.42C62.7314 38.42 61.2714 36.42 61.2714 32.42C61.2714 31.82 61.3114 31.22 61.3914 30.62C61.4714 30.02 61.5914 29.42 61.7514 28.82C62.7514 25.02 64.0714 21.46 65.7114 18.14C66.3514 16.82 67.0314 15.54 67.7514 14.3C68.5114 13.06 69.2914 11.88 70.0914 10.76C70.9314 9.6 71.8114 8.48 72.7314 7.4C73.6514 6.32 74.6114 5.32 75.6114 4.4C78.4514 1.76 80.8114 0.439997 82.6914 0.439997C84.3714 0.439997 85.2114 1.24 85.2114 2.84C85.2114 4.12 84.6314 5.76 83.4714 7.76C82.5114 9.44 81.4714 10.84 80.3514 11.96C76.9514 15.48 72.6714 18.78 67.5114 21.86C64.9514 27.94 63.6714 32.3 63.6714 34.94C63.6714 35.98 63.8514 36.74 64.2114 37.22C64.6114 37.66 65.1714 37.88 65.8914 37.88C66.8514 37.88 67.7314 37.54 68.5314 36.86C69.3714 36.18 70.1314 35.34 70.8114 34.34C71.4914 33.34 72.0914 32.32 72.6114 31.28C73.1314 30.24 73.5314 29.34 73.8114 28.58C73.7314 28.38 73.6314 28 73.5114 27.44C73.4314 26.84 73.3914 26.24 73.3914 25.64C73.3914 24.96 73.4714 24.38 73.6314 23.9C73.7914 23.38 74.0714 23.12 74.4714 23.12C75.1114 23.12 75.4314 23.6 75.4314 24.56C75.4314 25.08 75.3514 25.68 75.1914 26.36C75.0314 27.04 74.7714 27.76 74.4114 28.52C74.4914 29.44 74.6714 30.22 74.9514 30.86C75.2314 31.5 75.7114 31.82 76.3914 31.82C77.0714 31.82 77.7114 31.48 78.3114 30.8C78.9114 30.08 79.5114 29.12 80.1114 27.92C80.1114 27.88 80.1514 27.86 80.2314 27.86C80.3114 27.86 80.3714 27.92 80.4114 28.04C80.4914 28.12 80.4914 28.22 80.4114 28.34C79.8514 29.58 79.2514 30.54 78.6114 31.22C77.9714 31.9 77.1914 32.24 76.2714 32.24C74.9514 32.24 74.1914 31.26 73.9914 29.3C71.6714 35.38 68.8914 38.42 65.6514 38.42ZM67.9314 21.08C73.0914 17.6 77.0514 14.48 79.8114 11.72C82.9714 8.48 84.5514 5.48 84.5514 2.72C84.5514 1.44 83.9314 0.8 82.6914 0.8C80.5314 0.8 77.6714 3.62 74.1114 9.26C72.9914 11.06 71.9114 12.96 70.8714 14.96C69.8714 16.92 68.8914 18.96 67.9314 21.08ZM82.5011 38.18C79.6611 38.18 78.2411 36.78 78.2411 33.98C78.2411 31.78 79.0611 29 80.7011 25.64C80.7811 25.48 81.1611 24.78 81.8411 23.54C82.5611 22.26 83.5811 20.44 84.9011 18.08H81.7811L81.6611 17.96L81.7211 17.6L81.7811 17.54H85.2011L89.5211 9.98C89.8811 10.14 90.3011 10.22 90.7811 10.22C91.3411 10.22 91.9411 10.02 92.5811 9.62C93.2611 9.26 93.7211 8.86 93.9611 8.42L94.1411 8.48L88.7411 17.54H92.8811L92.9411 17.6V17.96L92.8211 18.08H88.4411L84.3611 25.28C81.9211 29.56 80.7011 32.86 80.7011 35.18C80.7011 36.82 81.3411 37.64 82.6211 37.64C84.6211 37.64 86.6411 36.52 88.6811 34.28C89.2411 33.68 89.9011 32.78 90.6611 31.58C91.4211 30.38 92.0611 29.24 92.5811 28.16C92.6611 27.96 92.7611 27.9 92.8811 27.98C93.0411 28.02 93.0811 28.14 93.0011 28.34C92.4011 29.54 91.7611 30.68 91.0811 31.76C90.4411 32.84 89.7011 33.84 88.8611 34.76C86.7811 37.04 84.6611 38.18 82.5011 38.18ZM101.997 15.2C100.717 15.2 100.077 14.58 100.077 13.34C100.077 11.98 100.697 11.3 101.937 11.3C103.217 11.3 103.857 11.92 103.857 13.16C103.857 14.52 103.237 15.2 101.997 15.2ZM94.9173 38.6C92.2773 38.6 90.9573 37.14 90.9573 34.22C90.9573 32.1 91.5773 29.86 92.8173 27.5L97.3173 18.68H97.4973C97.6173 18.84 97.8573 18.92 98.2173 18.92C98.9773 18.92 99.9773 18.46 101.217 17.54L101.337 17.66L96.2373 27.56C94.1173 31.64 93.0573 34.48 93.0573 36.08C93.0573 36.8 93.2573 37.3 93.6573 37.58C94.0573 37.86 94.5173 38 95.0373 38C95.5973 38 96.1373 37.88 96.6573 37.64C97.2173 37.4 97.6973 37.14 98.0973 36.86C99.1773 36.02 100.077 35.06 100.797 33.98C101.557 32.86 102.217 31.74 102.777 30.62C103.337 29.5 103.837 28.56 104.277 27.8C104.397 27.6 104.517 27.54 104.637 27.62C104.757 27.66 104.777 27.78 104.697 27.98C103.897 29.66 103.017 31.38 102.057 33.14C101.097 34.9 99.8773 36.3 98.3973 37.34C97.8773 37.7 97.3173 38 96.7173 38.24C96.1573 38.48 95.5573 38.6 94.9173 38.6ZM103.64 56.36C102.44 56.28 101.52 55.8 100.88 54.92C100.24 54.08 99.8003 53.06 99.5603 51.86C99.3203 50.7 99.2003 49.62 99.2003 48.62C99.2003 42.94 100.98 35.52 104.54 26.36C109.34 14.24 114.34 6.32 119.54 2.6C121.26 1.36 122.84 0.739997 124.28 0.739997C126.16 0.739997 127.1 1.6 127.1 3.32C127.1 8.2 120.48 16.76 107.24 29H107.3C103.38 39 101.42 46.5 101.42 51.5C101.42 52.98 101.64 54.06 102.08 54.74C102.52 55.42 103.16 55.76 104 55.76C105.12 55.76 106.12 55.2 107 54.08C107.88 52.96 108.62 51.54 109.22 49.82C109.82 48.1 110.22 46.36 110.42 44.6C110.46 44.32 110.48 44.04 110.48 43.76C110.48 43.52 110.48 43.26 110.48 42.98C110.48 41.58 110.32 40.32 110 39.2C109.72 38.12 109.3 37.38 108.74 36.98C106.78 36.94 105.8 36.42 105.8 35.42C105.8 34.94 106.08 34.7 106.64 34.7C107.56 34.7 108.38 35.32 109.1 36.56C110.58 36.64 111.84 36.46 112.88 36.02C113.92 35.58 114.94 34.9 115.94 33.98C116.86 33.18 117.7 32.22 118.46 31.1C119.22 29.94 119.8 28.92 120.2 28.04C120.4 27.72 120.54 27.56 120.62 27.56C120.7 27.56 120.74 27.62 120.74 27.74C120.74 27.9 120.7 28.06 120.62 28.22C119.14 31.18 117.48 33.42 115.64 34.94C113.8 36.42 111.76 37.12 109.52 37.04C110 37.56 110.38 38.36 110.66 39.44C110.94 40.52 111.08 41.72 111.08 43.04C111.08 44.52 110.9 46.04 110.54 47.6C110.18 49.2 109.68 50.66 109.04 51.98C108.4 53.34 107.62 54.42 106.7 55.22C105.78 56.02 104.76 56.4 103.64 56.36ZM107.72 27.98C120.24 16.22 126.5 7.96 126.5 3.2C126.5 1.88 125.9 1.22 124.7 1.22C121.9 1.22 118.52 4.98 114.56 12.5C111.92 17.42 109.64 22.58 107.72 27.98ZM115.378 52.34C113.098 52.34 111.958 51.46 111.958 49.7C111.958 47.74 113.598 45.9 116.878 44.18C117.278 43.98 117.918 43.74 118.798 43.46C119.718 43.18 120.858 42.84 122.218 42.44C123.178 42.2 124.038 41.96 124.798 41.72C125.558 41.52 126.238 41.32 126.838 41.12C127.038 40.56 127.298 39.88 127.618 39.08C127.938 38.32 128.258 37.44 128.578 36.44C128.778 35.92 128.978 35.28 129.178 34.52C129.418 33.72 129.718 32.8 130.078 31.76C130.438 30.72 130.898 29.58 131.458 28.34C132.058 27.1 132.758 25.8 133.558 24.44C133.158 24.92 132.678 25.56 132.118 26.36C131.598 27.12 130.998 28.02 130.318 29.06C128.398 32.02 127.098 33.9 126.418 34.7C124.458 37.1 122.678 38.3 121.078 38.3C120.038 38.3 119.178 37.96 118.498 37.28C117.858 36.52 117.538 35.64 117.538 34.64C117.538 32.84 118.198 30.8 119.518 28.52C119.718 28.2 120.118 27.6 120.718 26.72C121.318 25.8 122.158 24.56 123.238 23C124.558 21.08 125.218 19.7 125.218 18.86C125.218 18.42 124.958 18.2 124.438 18.2C123.958 18.2 123.498 18.36 123.058 18.68C122.578 19 122.298 19.38 122.218 19.82L122.098 19.94H121.918L121.798 19.88C121.878 19.36 122.218 18.88 122.818 18.44C123.378 18.04 123.938 17.78 124.498 17.66C124.698 17.62 124.898 17.6 125.098 17.6C125.338 17.56 125.558 17.54 125.758 17.54C127.238 17.54 127.978 18.12 127.978 19.28C127.978 20.84 126.638 23.44 123.958 27.08C121.438 30.6 120.178 33.5 120.178 35.78C120.178 37.02 120.678 37.64 121.678 37.64C123.278 37.64 126.078 34.56 130.078 28.4C133.438 23.2 136.218 19.8 138.418 18.2C139.458 17.4 140.258 17 140.818 17C141.258 17 141.478 17.22 141.478 17.66C141.478 18.1 140.998 18.48 140.038 18.8C137.838 19.44 135.998 21.02 134.518 23.54C133.958 24.54 133.458 25.62 133.018 26.78C132.578 27.94 132.258 29.2 132.058 30.56C131.898 31.32 131.758 32.08 131.638 32.84C131.558 33.6 131.458 34.36 131.338 35.12C131.178 35.88 131.018 36.62 130.858 37.34C130.698 38.06 130.478 38.84 130.198 39.68C135.438 37.28 139.358 33.44 141.958 28.16C142.078 27.96 142.178 27.86 142.258 27.86C142.458 27.86 142.498 28.02 142.378 28.34C141.058 31.1 139.358 33.5 137.278 35.54C135.238 37.54 132.798 39.14 129.958 40.34C128.958 42.82 127.798 44.88 126.478 46.52C125.198 48.2 123.378 49.66 121.018 50.9C119.218 51.86 117.338 52.34 115.378 52.34ZM115.738 51.8C120.138 51.8 123.718 48.54 126.478 42.02C125.878 42.22 125.198 42.44 124.438 42.68C123.678 42.96 122.838 43.22 121.918 43.46C121.398 43.62 120.738 43.82 119.938 44.06C119.138 44.34 118.218 44.68 117.178 45.08C116.698 45.36 116.238 45.66 115.798 45.98C115.358 46.34 114.918 46.74 114.478 47.18C113.478 48.26 112.978 49.24 112.978 50.12C112.978 51.24 113.898 51.8 115.738 51.8Z" fill="#252873"/>
<rect x="43" y="41" width="55" height="2" fill="#252873"/>
</svg>
